<?xml version="1.0" standalone="no"?>
<!DOCTYPE svg PUBLIC "-//W3C//DTD SVG 20010904//EN"
 "http://www.w3.org/TR/2001/REC-SVG-20010904/DTD/svg10.dtd">
<svg version="1.0" xmlns="http://www.w3.org/2000/svg"
 width="230.000000pt" height="72.000000pt" viewBox="0 0 230.000000 72.000000"
 preserveAspectRatio="xMidYMid meet">

<g transform="translate(0.000000,72.000000) scale(0.100000,-0.100000)"
fill="#000000" stroke="none">
<path d="M399 715 c-3 -2 -41 -10 -85 -16 -89 -13 -135 -35 -209 -103 -27 -25
-62 -50 -77 -57 -23 -9 -26 -15 -18 -29 6 -10 10 -30 10 -44 0 -43 33 -42 98
2 32 21 73 42 92 45 52 10 118 17 98 11 -14 -4 -18 -16 -18 -54 0 -43 2 -48
26 -53 31 -6 38 9 31 63 l-5 40 39 0 c48 0 92 -17 182 -72 58 -35 76 -41 135
-44 l67 -3 -55 8 c-73 10 -125 28 -142 48 -24 30 -130 70 -199 75 -36 3 -76
12 -90 19 l-24 14 29 3 c17 2 30 11 33 22 7 26 34 30 143 25 92 -4 93 -4 25 5
-38 5 -114 6 -168 3 -84 -5 -97 -8 -92 -22 7 -22 -109 -91 -165 -98 -52 -7
-52 8 3 45 23 16 51 40 62 52 39 44 96 71 183 88 119 23 179 20 310 -17 62
-18 117 -31 123 -29 5 2 -52 20 -129 41 -126 34 -201 45 -213 32z m-89 -120
c0 -15 -26 -20 -54 -9 -28 11 -17 24 19 24 24 0 35 -5 35 -15z m-54 -37 c9
-14 -23 -38 -50 -38 -18 0 -18 1 4 25 26 28 35 31 46 13z m-99 -46 c-38 -40
-100 -73 -116 -62 -20 12 -5 40 21 40 13 1 43 12 68 25 58 31 59 31 27 -3z"/>
<path d="M818 705 c-35 -20 -52 -71 -37 -113 15 -43 35 -52 113 -52 45 0 69
-5 80 -16 19 -18 19 -20 6 -45 -9 -17 -22 -19 -100 -19 -89 0 -90 0 -90 -25 0
-25 0 -25 99 -25 84 0 102 3 124 20 43 34 45 114 3 142 -6 4 -43 8 -81 8 -75
0 -95 10 -95 46 0 29 17 34 111 34 l79 0 0 30 0 30 -92 0 c-62 -1 -102 -6
-120 -15z"/>
<path d="M1600 670 c0 -33 -3 -40 -20 -40 -15 0 -20 -7 -20 -25 0 -18 5 -25
20 -25 18 0 20 -7 20 -65 0 -78 19 -105 75 -105 28 0 35 4 35 20 0 13 -7 20
-19 20 -31 0 -42 25 -39 82 3 50 5 53 31 56 19 2 27 9 27 22 0 13 -8 20 -27
22 -24 3 -28 8 -31 41 -3 32 -7 37 -28 37 -21 0 -24 -4 -24 -40z"/>
<path d="M1092 608 c3 -21 8 -23 65 -23 61 0 92 -13 79 -34 -4 -6 -34 -11 -66
-11 -49 0 -61 -4 -74 -22 -9 -12 -16 -32 -16 -43 0 -11 7 -31 16 -43 14 -20
23 -22 105 -22 l89 0 0 94 c0 119 -7 126 -123 126 -76 0 -78 -1 -75 -22z m148
-133 c0 -23 -3 -25 -49 -25 -35 0 -51 4 -55 16 -10 26 3 34 55 34 46 0 49 -2
49 -25z"/>
<path d="M1340 520 l0 -110 30 0 30 0 0 91 0 90 38 -3 37 -3 3 -87 c3 -86 3
-88 27 -88 25 0 25 1 25 93 0 120 -6 127 -113 127 l-77 0 0 -110z"/>
<path d="M1800 623 c-54 -21 -79 -80 -60 -138 26 -78 124 -103 181 -46 24 25
29 38 29 80 0 68 -28 102 -90 107 -25 2 -52 1 -60 -3z m88 -49 c46 -32 16
-124 -40 -124 -32 0 -68 38 -68 73 0 59 58 86 108 51z"/>
<path d="M1998 520 c3 -100 5 -110 22 -110 17 0 20 9 22 88 l3 87 35 0 35 0 3
-87 c3 -86 3 -88 27 -88 25 0 25 1 25 85 l0 85 35 0 35 0 0 -85 0 -85 30 0 30
0 0 85 c0 78 -2 88 -25 110 -23 24 -30 25 -152 25 l-128 0 3 -110z"/>
<path d="M191 408 c-1 -37 0 -38 37 -38 33 0 38 3 40 25 2 22 -2 25 -32 25
-19 0 -37 6 -39 13 -3 6 -6 -5 -6 -25z"/>
<path d="M430 430 c0 -5 -16 -10 -35 -10 -31 0 -35 -3 -35 -25 0 -22 4 -25 40
-25 39 0 40 1 40 35 0 19 -2 35 -5 35 -3 0 -5 -4 -5 -10z"/>
<path d="M330 374 c0 -7 -8 -11 -17 -10 -15 1 -19 -9 -21 -51 l-3 -53 38 1
c21 0 33 3 28 5 -6 2 -9 22 -7 43 2 22 -1 48 -7 58 -6 10 -11 13 -11 7z"/>
<path d="M628 356 c-20 -7 -51 -25 -67 -39 -48 -40 -128 -65 -217 -68 -93 -2
-150 13 -219 59 -59 39 -90 39 -90 0 -1 -15 -4 -30 -8 -34 -13 -13 -7 -33 12
-39 10 -3 48 -32 84 -64 76 -67 114 -84 215 -100 113 -17 167 -13 287 20 134
37 139 38 134 44 -2 2 -60 -12 -129 -32 -110 -31 -134 -34 -200 -29 -179 14
-215 26 -284 91 -22 20 -57 49 -78 62 -39 26 -45 37 -28 48 28 17 203 -74 198
-103 -3 -15 14 -17 160 -19 90 -1 161 1 158 4 -3 3 -52 5 -110 4 -97 -1 -105
0 -111 19 -5 14 -15 20 -38 20 -29 0 -30 1 -15 16 10 10 44 19 90 24 87 9 111
18 202 72 54 33 82 43 135 48 l66 7 -55 1 c-30 1 -72 -5 -92 -12z m-507 -57
c26 -16 53 -37 60 -45 8 -10 14 -11 19 -4 4 7 16 7 38 -1 35 -12 39 -21 19
-38 -11 -8 -18 -6 -32 9 -10 11 -21 17 -25 15 -4 -3 -27 6 -51 19 -24 13 -59
27 -76 31 -31 6 -42 23 -26 38 11 12 25 8 74 -24z m199 -124 c0 -10 -11 -15
-35 -15 -33 0 -43 8 -28 23 13 14 63 7 63 -8z"/>
<path d="M1043 330 c-36 -22 -50 -66 -39 -125 16 -82 151 -103 185 -28 6 13
11 44 11 69 0 87 -81 131 -157 84z m107 -36 c23 -22 20 -102 -4 -120 -26 -18
-56 -18 -84 2 -17 12 -22 25 -22 59 0 72 62 105 110 59z"/>
<path d="M1460 240 c0 -103 1 -110 20 -110 17 0 20 7 20 40 l0 40 54 0 c66 0
86 16 86 70 0 54 -25 70 -112 70 l-68 0 0 -110z m137 54 c11 -28 -11 -49 -56
-52 -41 -3 -41 -3 -41 32 0 36 0 36 45 36 33 0 47 -5 52 -16z"/>
<path d="M1672 240 c3 -97 5 -110 21 -110 15 0 17 12 17 110 0 105 -1 110 -21
110 -20 0 -21 -4 -17 -110z"/>
<path d="M1750 330 c0 -16 7 -20 35 -20 l35 0 0 -90 c0 -73 3 -90 15 -90 12 0
15 17 15 90 l0 90 35 0 c28 0 35 4 35 20 0 18 -7 20 -85 20 -78 0 -85 -2 -85
-20z"/>
<path d="M2150 261 c0 -85 1 -91 26 -110 18 -14 41 -21 70 -21 37 0 44 3 44
20 0 17 -7 20 -44 20 -53 0 -56 6 -56 106 0 67 -2 74 -20 74 -19 0 -20 -7 -20
-89z"/>
<path d="M800 235 c0 -98 1 -105 20 -105 17 0 20 7 20 45 l0 45 45 0 45 0 0
-45 c0 -36 3 -45 18 -45 15 0 17 10 14 105 -3 91 -6 105 -20 105 -13 0 -17 -9
-17 -37 0 -37 -1 -38 -42 -41 l-43 -3 0 40 c0 34 -3 41 -20 41 -19 0 -20 -7
-20 -105z"/>
<path d="M1242 328 c-14 -14 -16 -67 -2 -88 6 -10 32 -17 77 -20 60 -4 68 -7
68 -25 0 -18 -8 -20 -72 -23 -65 -3 -73 -5 -73 -22 0 -18 7 -20 68 -20 80 0
112 17 112 60 0 43 -23 60 -84 60 -56 0 -83 17 -72 45 4 11 22 15 76 15 56 0
70 3 70 15 0 12 -15 15 -78 15 -47 0 -83 -5 -90 -12z"/>
<path d="M1968 252 c-55 -128 -53 -122 -29 -122 13 0 26 10 33 25 9 21 18 25
55 25 37 0 45 -4 55 -25 11 -25 55 -37 45 -12 -73 184 -79 197 -101 197 -17 0
-28 -17 -58 -88z m77 -4 c6 -25 5 -28 -19 -28 -30 0 -29 -2 -15 39 12 35 24
31 34 -11z"/>
<path d="M210 306 c0 -2 8 -10 18 -17 15 -13 16 -12 3 4 -13 16 -21 21 -21 13z"/>
<path d="M399 293 c-13 -16 -12 -17 4 -4 16 13 21 21 13 21 -2 0 -10 -8 -17
-17z"/>
<path d="M748 73 c7 -3 16 -2 19 1 4 3 -2 6 -13 5 -11 0 -14 -3 -6 -6z"/>
<path d="M868 73 c7 -3 16 -2 19 1 4 3 -2 6 -13 5 -11 0 -14 -3 -6 -6z"/>
<path d="M1015 66 c-21 -15 -14 -46 10 -46 10 0 15 10 15 30 0 34 0 34 -25 16z
m15 -21 c0 -8 -4 -15 -10 -15 -5 0 -10 7 -10 15 0 8 5 15 10 15 6 0 10 -7 10
-15z"/>
<path d="M1170 65 c0 -8 4 -15 10 -15 5 0 7 7 4 15 -4 8 -8 15 -10 15 -2 0 -4
-7 -4 -15z"/>
<path d="M1375 69 c-4 -6 -4 -13 -1 -16 3 -4 6 -1 6 6 0 8 6 11 16 7 8 -3 12
-2 9 4 -8 13 -22 13 -30 -1z"/>
<path d="M1620 76 c0 -2 9 -6 20 -9 11 -3 18 -1 14 4 -5 9 -34 13 -34 5z"/>
<path d="M1872 50 c0 -19 2 -27 5 -17 2 9 2 25 0 35 -3 9 -5 1 -5 -18z"/>
<path d="M1892 50 c0 -19 2 -27 5 -17 2 9 2 25 0 35 -3 9 -5 1 -5 -18z"/>
<path d="M1912 50 c0 -19 2 -27 5 -17 2 9 2 25 0 35 -3 9 -5 1 -5 -18z"/>
<path d="M2001 50 c1 -19 3 -27 6 -17 2 9 12 17 21 18 14 0 14 2 2 6 -8 3 -18
11 -22 17 -4 6 -7 -5 -7 -24z"/>
<path d="M914 55 c-7 -17 3 -35 19 -35 7 0 6 4 -3 10 -13 9 -13 10 0 10 12 0
13 2 1 9 -11 7 -11 9 0 14 11 4 11 6 1 6 -7 1 -15 -6 -18 -14z"/>
<path d="M960 66 c0 -2 7 -6 15 -10 8 -3 15 -1 15 4 0 6 -7 10 -15 10 -8 0
-15 -2 -15 -4z"/>
<path d="M1054 55 c-7 -17 3 -35 19 -35 7 0 6 4 -3 10 -13 9 -13 10 0 10 12 0
13 2 1 9 -11 7 -11 9 0 14 11 4 11 6 1 6 -7 1 -15 -6 -18 -14z"/>
<path d="M1100 66 c0 -2 7 -6 15 -10 8 -3 15 -1 15 4 0 6 -7 10 -15 10 -8 0
-15 -2 -15 -4z"/>
<path d="M1450 51 c0 -11 -6 -22 -12 -24 -8 -3 -6 -6 5 -6 12 -1 17 7 17 24 0
14 -2 25 -5 25 -3 0 -5 -9 -5 -19z"/>
<path d="M1470 35 c0 -30 2 -34 14 -23 8 7 10 15 5 16 -13 5 -11 30 4 35 7 3
5 6 -5 6 -14 1 -18 -7 -18 -34z"/>
<path d="M1670 35 l0 -36 21 20 c23 21 20 51 -6 51 -11 0 -15 -10 -15 -35z
m30 10 c0 -8 -4 -15 -10 -15 -5 0 -10 7 -10 15 0 8 5 15 10 15 6 0 10 -7 10
-15z"/>
<path d="M1724 55 c-7 -17 3 -35 19 -35 7 0 6 4 -3 10 -13 9 -13 10 0 10 12 0
13 2 1 9 -11 7 -11 9 0 14 11 4 11 6 1 6 -7 1 -15 -6 -18 -14z"/>
<path d="M1770 66 c0 -2 7 -7 16 -10 8 -3 12 -2 9 4 -6 10 -25 14 -25 6z"/>
<path d="M1838 61 c8 -4 14 -12 14 -16 0 -4 -6 -12 -14 -17 -10 -8 -10 -9 2
-5 23 6 26 47 3 47 -14 0 -15 -2 -5 -9z"/>
<path d="M2065 60 c-3 -6 1 -7 9 -4 18 7 21 14 7 14 -6 0 -13 -4 -16 -10z"/>
<path d="M2150 35 c0 -30 2 -34 14 -23 8 7 10 15 5 16 -13 5 -11 30 4 35 7 3
5 6 -5 6 -14 1 -18 -7 -18 -34z"/>
<path d="M2248 61 c8 -4 14 -12 14 -16 0 -4 -6 -12 -14 -17 -10 -8 -10 -9 2
-5 23 6 26 47 3 47 -14 0 -15 -2 -5 -9z"/>
<path d="M793 53 c9 -2 17 -9 17 -15 0 -6 -8 -7 -17 -3 -15 5 -16 4 -5 -6 9
-10 15 -10 23 -2 14 14 3 33 -19 32 -15 -1 -15 -2 1 -6z"/>
<path d="M868 53 c7 -3 16 -2 19 1 4 3 -2 6 -13 5 -11 0 -14 -3 -6 -6z"/>
<path d="M1195 39 c-4 -6 -5 -12 -2 -15 2 -3 7 2 10 11 7 17 1 20 -8 4z"/>
<path d="M1400 42 c0 -6 -8 -13 -17 -15 -16 -4 -16 -5 -1 -6 18 -1 34 16 24
26 -3 4 -6 1 -6 -5z"/>
<path d="M1528 43 c7 -3 16 -2 19 1 4 3 -2 6 -13 5 -11 0 -14 -3 -6 -6z"/>
<path d="M1940 40 c0 -5 5 -10 11 -10 5 0 7 5 4 10 -3 6 -8 10 -11 10 -2 0 -4
-4 -4 -10z"/>
<path d="M2119 42 c9 -7 10 -11 2 -15 -7 -4 -8 -5 0 -3 15 2 13 20 -3 24 -10
3 -10 2 1 -6z"/>
<path d="M970 30 c-13 -8 -12 -10 3 -10 9 0 17 5 17 10 0 12 -1 12 -20 0z"/>
<path d="M1110 30 c-13 -8 -12 -10 3 -10 9 0 17 5 17 10 0 12 -1 12 -20 0z"/>
<path d="M1250 30 c-13 -8 -12 -10 3 -10 9 0 17 5 17 10 0 12 -1 12 -20 0z"/>
<path d="M1635 30 c-16 -7 -17 -9 -3 -9 9 -1 20 4 23 9 7 11 7 11 -20 0z"/>
<path d="M1780 30 c-9 -6 -10 -10 -3 -10 6 0 15 5 18 10 8 12 4 12 -15 0z"/>
<path d="M2067 29 c7 -7 15 -10 18 -7 3 3 -2 9 -12 12 -14 6 -15 5 -6 -5z"/>
<path d="M748 23 c7 -3 16 -2 19 1 4 3 -2 6 -13 5 -11 0 -14 -3 -6 -6z"/>
<path d="M868 23 c7 -3 16 -2 19 1 4 3 -2 6 -13 5 -11 0 -14 -3 -6 -6z"/>
<path d="M1528 23 c7 -3 16 -2 19 1 4 3 -2 6 -13 5 -11 0 -14 -3 -6 -6z"/>
</g>
</svg>
